<svg class="mapfig" xmlns="http://www.w3.org/2000/svg" viewBox="0 0 1000 608" width="1000" height="608" role="img" aria-label="The 30 largest classes of 26.3 by lines of decompiled source">
<title>The 30 largest classes of 26.3 by lines of decompiled source</title>
<g><title>Entity (world/entity): 4,617 lines</title>
<text x="404" y="17" text-anchor="end" font-size="12">Entity<tspan class="muted" font-size="11"> world/entity</tspan></text>
<rect class="shared" x="412" y="7" width="526.0" height="14" rx="2"/>
<text class="muted" x="943.0" y="17" font-size="11">4,617</text>
</g>
<g><title>LivingEntity (world/entity): 4,461 lines</title>
<text x="404" y="37" text-anchor="end" font-size="12">LivingEntity<tspan class="muted" font-size="11"> world/entity</tspan></text>
<rect class="shared" x="412" y="27" width="508.2" height="14" rx="2"/>
<text class="muted" x="925.2" y="37" font-size="11">4,461</text>
</g>
<g><title>Minecraft (client): 3,345 lines</title>
<text x="404" y="57" text-anchor="end" font-size="12">Minecraft<tspan class="muted" font-size="11"> client</tspan></text>
<rect class="client" x="412" y="47" width="381.1" height="14" rx="2"/>
<text class="muted" x="798.1" y="57" font-size="11">3,345</text>
</g>
<g><title>BlockModelGenerators (client/data/models): 3,136 lines</title>
<text x="404" y="77" text-anchor="end" font-size="12">BlockModelGenerators<tspan class="muted" font-size="11"> client/data/models</tspan></text>
<rect class="client" x="412" y="67" width="357.3" height="14" rx="2"/>
<text class="muted" x="774.3" y="77" font-size="11">3,136</text>
</g>
<g><title>ClientPacketListener (client/multiplayer): 3,090 lines</title>
<text x="404" y="97" text-anchor="end" font-size="12">ClientPacketListener<tspan class="muted" font-size="11"> client/multiplayer</tspan></text>
<rect class="client" x="412" y="87" width="352.0" height="14" rx="2"/>
<text class="muted" x="769.0" y="97" font-size="11">3,090</text>
</g>
<g><title>MinecraftServer (server): 2,608 lines</title>
<text x="404" y="117" text-anchor="end" font-size="12">MinecraftServer<tspan class="muted" font-size="11"> server</tspan></text>
<rect class="shared" x="412" y="107" width="297.1" height="14" rx="2"/>
<text class="muted" x="714.1" y="117" font-size="11">2,608</text>
</g>
<g><title>ServerGamePacketListenerImpl (server/network): 2,567 lines</title>
<text x="404" y="137" text-anchor="end" font-size="12">ServerGamePacketListenerImpl<tspan class="muted" font-size="11"> server/network</tspan></text>
<rect class="shared" x="412" y="127" width="292.5" height="14" rx="2"/>
<text class="muted" x="709.5" y="137" font-size="11">2,567</text>
</g>
<g><title>ServerPlayer (server/level): 2,516 lines</title>
<text x="404" y="157" text-anchor="end" font-size="12">ServerPlayer<tspan class="muted" font-size="11"> server/level</tspan></text>
<rect class="shared" x="412" y="147" width="286.6" height="14" rx="2"/>
<text class="muted" x="703.6" y="157" font-size="11">2,516</text>
</g>
<g><title>BlockStateData (util/datafix/fixes): 2,270 lines</title>
<text x="404" y="177" text-anchor="end" font-size="12">BlockStateData<tspan class="muted" font-size="11"> util/datafix/fixes</tspan></text>
<rect class="shared" x="412" y="167" width="258.6" height="14" rx="2"/>
<text class="muted" x="675.6" y="177" font-size="11">2,270</text>
</g>
<g><title>ServerLevel (server/level): 2,139 lines</title>
<text x="404" y="197" text-anchor="end" font-size="12">ServerLevel<tspan class="muted" font-size="11"> server/level</tspan></text>
<rect class="shared" x="412" y="187" width="243.7" height="14" rx="2"/>
<text class="muted" x="660.7" y="197" font-size="11">2,139</text>
</g>
<g><title>Items (world/item): 2,067 lines</title>
<text x="404" y="217" text-anchor="end" font-size="12">Items<tspan class="muted" font-size="11"> world/item</tspan></text>
<rect class="shared" x="412" y="207" width="235.5" height="14" rx="2"/>
<text class="muted" x="652.5" y="217" font-size="11">2,067</text>
</g>
<g><title>Blocks (world/level/block): 2,061 lines</title>
<text x="404" y="237" text-anchor="end" font-size="12">Blocks<tspan class="muted" font-size="11"> world/level/block</tspan></text>
<rect class="shared" x="412" y="227" width="234.8" height="14" rx="2"/>
<text class="muted" x="651.8" y="237" font-size="11">2,061</text>
</g>
<g><title>Player (world/entity/player): 2,034 lines</title>
<text x="404" y="257" text-anchor="end" font-size="12">Player<tspan class="muted" font-size="11"> world/entity/player</tspan></text>
<rect class="shared" x="412" y="247" width="231.7" height="14" rx="2"/>
<text class="muted" x="648.7" y="257" font-size="11">2,034</text>
</g>
<g><title>SoundEvents (sounds): 2,023 lines</title>
<text x="404" y="277" text-anchor="end" font-size="12">SoundEvents<tspan class="muted" font-size="11"> sounds</tspan></text>
<rect class="shared" x="412" y="267" width="230.5" height="14" rx="2"/>
<text class="muted" x="647.5" y="277" font-size="11">2,023</text>
</g>
<g><title>Options (client): 2,010 lines</title>
<text x="404" y="297" text-anchor="end" font-size="12">Options<tspan class="muted" font-size="11"> client</tspan></text>
<rect class="client" x="412" y="287" width="229.0" height="14" rx="2"/>
<text class="muted" x="646.0" y="297" font-size="11">2,010</text>
</g>
<g><title>OceanMonumentPieces (world/level/levelgen/structure/structures): 1,983 lines</title>
<text x="404" y="317" text-anchor="end" font-size="12">OceanMonumentPieces<tspan class="muted" font-size="11"> world/level/levelgen/structure/structures</tspan></text>
<rect class="shared" x="412" y="307" width="225.9" height="14" rx="2"/>
<text class="muted" x="642.9" y="317" font-size="11">1,983</text>
</g>
<g><title>CreativeModeTabs (world/item): 1,737 lines</title>
<text x="404" y="337" text-anchor="end" font-size="12">CreativeModeTabs<tspan class="muted" font-size="11"> world/item</tspan></text>
<rect class="shared" x="412" y="327" width="197.9" height="14" rx="2"/>
<text class="muted" x="614.9" y="337" font-size="11">1,737</text>
</g>
<g><title>ChunkMap (server/level): 1,661 lines</title>
<text x="404" y="357" text-anchor="end" font-size="12">ChunkMap<tspan class="muted" font-size="11"> server/level</tspan></text>
<rect class="shared" x="412" y="347" width="189.2" height="14" rx="2"/>
<text class="muted" x="606.2" y="357" font-size="11">1,661</text>
</g>
<g><title>DataFixers (util/datafix): 1,637 lines</title>
<text x="404" y="377" text-anchor="end" font-size="12">DataFixers<tspan class="muted" font-size="11"> util/datafix</tspan></text>
<rect class="shared" x="412" y="367" width="186.5" height="14" rx="2"/>
<text class="muted" x="603.5" y="377" font-size="11">1,637</text>
</g>
<g><title>Fox (world/entity/animal/fox): 1,625 lines</title>
<text x="404" y="397" text-anchor="end" font-size="12">Fox<tspan class="muted" font-size="11"> world/entity/animal/fox</tspan></text>
<rect class="shared" x="412" y="387" width="185.1" height="14" rx="2"/>
<text class="muted" x="602.1" y="397" font-size="11">1,625</text>
</g>
<g><title>Mob (world/entity): 1,616 lines</title>
<text x="404" y="417" text-anchor="end" font-size="12">Mob<tspan class="muted" font-size="11"> world/entity</tspan></text>
<rect class="shared" x="412" y="407" width="184.1" height="14" rx="2"/>
<text class="muted" x="601.1" y="417" font-size="11">1,616</text>
</g>
<g><title>LevelRenderer (client/renderer): 1,499 lines</title>
<text x="404" y="437" text-anchor="end" font-size="12">LevelRenderer<tspan class="muted" font-size="11"> client/renderer</tspan></text>
<rect class="client" x="412" y="427" width="170.8" height="14" rx="2"/>
<text class="muted" x="587.8" y="437" font-size="11">1,499</text>
</g>
<g><title>Hud (client/gui): 1,481 lines</title>
<text x="404" y="457" text-anchor="end" font-size="12">Hud<tspan class="muted" font-size="11"> client/gui</tspan></text>
<rect class="client" x="412" y="447" width="168.7" height="14" rx="2"/>
<text class="muted" x="585.7" y="457" font-size="11">1,481</text>
</g>
<g><title>Bee (world/entity/animal/bee): 1,450 lines</title>
<text x="404" y="477" text-anchor="end" font-size="12">Bee<tspan class="muted" font-size="11"> world/entity/animal/bee</tspan></text>
<rect class="shared" x="412" y="467" width="165.2" height="14" rx="2"/>
<text class="muted" x="582.2" y="477" font-size="11">1,450</text>
</g>
<g><title>StrongholdPieces (world/level/levelgen/structure/structures): 1,436 lines</title>
<text x="404" y="497" text-anchor="end" font-size="12">StrongholdPieces<tspan class="muted" font-size="11"> world/level/levelgen/structure/structures</tspan></text>
<rect class="shared" x="412" y="487" width="163.6" height="14" rx="2"/>
<text class="muted" x="580.6" y="497" font-size="11">1,436</text>
</g>
<g><title>LocalPlayer (client/player): 1,435 lines</title>
<text x="404" y="517" text-anchor="end" font-size="12">LocalPlayer<tspan class="muted" font-size="11"> client/player</tspan></text>
<rect class="client" x="412" y="507" width="163.5" height="14" rx="2"/>
<text class="muted" x="580.5" y="517" font-size="11">1,435</text>
</g>
<g><title>FriendlyByteBuf (network): 1,414 lines</title>
<text x="404" y="537" text-anchor="end" font-size="12">FriendlyByteBuf<tspan class="muted" font-size="11"> network</tspan></text>
<rect class="shared" x="412" y="527" width="161.1" height="14" rx="2"/>
<text class="muted" x="578.1" y="537" font-size="11">1,414</text>
</g>
<g><title>VanillaBlockLoot (data/loot/packs): 1,412 lines</title>
<text x="404" y="557" text-anchor="end" font-size="12">VanillaBlockLoot<tspan class="muted" font-size="11"> data/loot/packs</tspan></text>
<rect class="shared" x="412" y="547" width="160.9" height="14" rx="2"/>
<text class="muted" x="577.9" y="557" font-size="11">1,412</text>
</g>
<g><title>BlockBehaviour (world/level/block/state): 1,380 lines</title>
<text x="404" y="577" text-anchor="end" font-size="12">BlockBehaviour<tspan class="muted" font-size="11"> world/level/block/state</tspan></text>
<rect class="shared" x="412" y="567" width="157.2" height="14" rx="2"/>
<text class="muted" x="574.2" y="577" font-size="11">1,380</text>
</g>
<g><title>Util (util): 1,372 lines</title>
<text x="404" y="597" text-anchor="end" font-size="12">Util<tspan class="muted" font-size="11"> util</tspan></text>
<rect class="shared" x="412" y="587" width="156.3" height="14" rx="2"/>
<text class="muted" x="573.3" y="597" font-size="11">1,372</text>
</g>
</svg>
