<svg class="mapfig" xmlns="http://www.w3.org/2000/svg" viewBox="0 0 1000 608" width="1000" height="608" role="img" aria-label="The 30 most-imported classes of 26.2: how many files import each">
<title>The 30 most-imported classes of 26.2: how many files import each</title>
<g><title>BlockPos (core): 1,221 importing files</title>
<text x="333" y="17" text-anchor="end" font-size="12">BlockPos<tspan class="muted" font-size="11"> core</tspan></text>
<rect class="shared" x="341" y="7" width="597.0" height="14" rx="2"/>
<text class="muted" x="943.0" y="17" font-size="11">1,221</text>
</g>
<g><title>Codec (com.mojang.serialization): 987 importing files</title>
<text x="333" y="37" text-anchor="end" font-size="12">Codec<tspan class="muted" font-size="11"> com.mojang.serialization</tspan></text>
<rect class="lib" x="341" y="27" width="482.6" height="14" rx="2"/>
<text class="muted" x="828.6" y="37" font-size="11">987</text>
</g>
<g><title>MapCodec (com.mojang.serialization): 917 importing files</title>
<text x="333" y="57" text-anchor="end" font-size="12">MapCodec<tspan class="muted" font-size="11"> com.mojang.serialization</tspan></text>
<rect class="lib" x="341" y="47" width="448.4" height="14" rx="2"/>
<text class="muted" x="794.4" y="57" font-size="11">917</text>
</g>
<g><title>Identifier (resources): 882 importing files</title>
<text x="333" y="77" text-anchor="end" font-size="12">Identifier<tspan class="muted" font-size="11"> resources</tspan></text>
<rect class="shared" x="341" y="67" width="431.2" height="14" rx="2"/>
<text class="muted" x="777.2" y="77" font-size="11">882</text>
</g>
<g><title>BlockState (world.level.block.state): 862 importing files</title>
<text x="333" y="97" text-anchor="end" font-size="12">BlockState<tspan class="muted" font-size="11"> world.level.block.state</tspan></text>
<rect class="shared" x="341" y="87" width="421.5" height="14" rx="2"/>
<text class="muted" x="767.5" y="97" font-size="11">862</text>
</g>
<g><title>RecordCodecBuilder (com.mojang.serialization.codecs): 804 importing files</title>
<text x="333" y="117" text-anchor="end" font-size="12">RecordCodecBuilder<tspan class="muted" font-size="11"> com.mojang.serialization.codecs</tspan></text>
<rect class="lib" x="341" y="107" width="393.1" height="14" rx="2"/>
<text class="muted" x="739.1" y="117" font-size="11">804</text>
</g>
<g><title>RandomSource (util): 773 importing files</title>
<text x="333" y="137" text-anchor="end" font-size="12">RandomSource<tspan class="muted" font-size="11"> util</tspan></text>
<rect class="shared" x="341" y="127" width="378.0" height="14" rx="2"/>
<text class="muted" x="724.0" y="137" font-size="11">773</text>
</g>
<g><title>Component (network.chat): 766 importing files</title>
<text x="333" y="157" text-anchor="end" font-size="12">Component<tspan class="muted" font-size="11"> network.chat</tspan></text>
<rect class="shared" x="341" y="147" width="374.5" height="14" rx="2"/>
<text class="muted" x="720.5" y="157" font-size="11">766</text>
</g>
<g><title>Level (world.level): 750 importing files</title>
<text x="333" y="177" text-anchor="end" font-size="12">Level<tspan class="muted" font-size="11"> world.level</tspan></text>
<rect class="shared" x="341" y="167" width="366.7" height="14" rx="2"/>
<text class="muted" x="712.7" y="177" font-size="11">750</text>
</g>
<g><title>ServerLevel (server.level): 726 importing files</title>
<text x="333" y="197" text-anchor="end" font-size="12">ServerLevel<tspan class="muted" font-size="11"> server.level</tspan></text>
<rect class="shared" x="341" y="187" width="355.0" height="14" rx="2"/>
<text class="muted" x="701.0" y="197" font-size="11">726</text>
</g>
<g><title>ItemStack (world.item): 682 importing files</title>
<text x="333" y="217" text-anchor="end" font-size="12">ItemStack<tspan class="muted" font-size="11"> world.item</tspan></text>
<rect class="shared" x="341" y="207" width="333.5" height="14" rx="2"/>
<text class="muted" x="679.5" y="217" font-size="11">682</text>
</g>
<g><title>Mth (util): 677 importing files</title>
<text x="333" y="237" text-anchor="end" font-size="12">Mth<tspan class="muted" font-size="11"> util</tspan></text>
<rect class="shared" x="341" y="227" width="331.0" height="14" rx="2"/>
<text class="muted" x="677.0" y="237" font-size="11">677</text>
</g>
<g><title>Entity (world.entity): 667 importing files</title>
<text x="333" y="257" text-anchor="end" font-size="12">Entity<tspan class="muted" font-size="11"> world.entity</tspan></text>
<rect class="shared" x="341" y="247" width="326.1" height="14" rx="2"/>
<text class="muted" x="672.1" y="257" font-size="11">667</text>
</g>
<g><title>Holder (core): 597 importing files</title>
<text x="333" y="277" text-anchor="end" font-size="12">Holder<tspan class="muted" font-size="11"> core</tspan></text>
<rect class="shared" x="341" y="267" width="291.9" height="14" rx="2"/>
<text class="muted" x="637.9" y="277" font-size="11">597</text>
</g>
<g><title>Vec3 (world.phys): 575 importing files</title>
<text x="333" y="297" text-anchor="end" font-size="12">Vec3<tspan class="muted" font-size="11"> world.phys</tspan></text>
<rect class="shared" x="341" y="287" width="281.1" height="14" rx="2"/>
<text class="muted" x="627.1" y="297" font-size="11">575</text>
</g>
<g><title>Direction (core): 570 importing files</title>
<text x="333" y="317" text-anchor="end" font-size="12">Direction<tspan class="muted" font-size="11"> core</tspan></text>
<rect class="shared" x="341" y="307" width="278.7" height="14" rx="2"/>
<text class="muted" x="624.7" y="317" font-size="11">570</text>
</g>
<g><title>LivingEntity (world.entity): 533 importing files</title>
<text x="333" y="337" text-anchor="end" font-size="12">LivingEntity<tspan class="muted" font-size="11"> world.entity</tspan></text>
<rect class="shared" x="341" y="327" width="260.6" height="14" rx="2"/>
<text class="muted" x="606.6" y="337" font-size="11">533</text>
</g>
<g><title>StreamCodec (network.codec): 508 importing files</title>
<text x="333" y="357" text-anchor="end" font-size="12">StreamCodec<tspan class="muted" font-size="11"> network.codec</tspan></text>
<rect class="shared" x="341" y="347" width="248.4" height="14" rx="2"/>
<text class="muted" x="594.4" y="357" font-size="11">508</text>
</g>
<g><title>LogUtils (com.mojang.logging): 470 importing files</title>
<text x="333" y="377" text-anchor="end" font-size="12">LogUtils<tspan class="muted" font-size="11"> com.mojang.logging</tspan></text>
<rect class="lib" x="341" y="367" width="229.8" height="14" rx="2"/>
<text class="muted" x="575.8" y="377" font-size="11">470</text>
</g>
<g><title>Util (util): 454 importing files</title>
<text x="333" y="397" text-anchor="end" font-size="12">Util<tspan class="muted" font-size="11"> util</tspan></text>
<rect class="shared" x="341" y="387" width="222.0" height="14" rx="2"/>
<text class="muted" x="568.0" y="397" font-size="11">454</text>
</g>
<g><title>Player (world.entity.player): 449 importing files</title>
<text x="333" y="417" text-anchor="end" font-size="12">Player<tspan class="muted" font-size="11"> world.entity.player</tspan></text>
<rect class="shared" x="341" y="407" width="219.5" height="14" rx="2"/>
<text class="muted" x="565.5" y="417" font-size="11">449</text>
</g>
<g><title>Registries (core.registries): 448 importing files</title>
<text x="333" y="437" text-anchor="end" font-size="12">Registries<tspan class="muted" font-size="11"> core.registries</tspan></text>
<rect class="shared" x="341" y="427" width="219.0" height="14" rx="2"/>
<text class="muted" x="565.0" y="437" font-size="11">448</text>
</g>
<g><title>ResourceKey (resources): 402 importing files</title>
<text x="333" y="457" text-anchor="end" font-size="12">ResourceKey<tspan class="muted" font-size="11"> resources</tspan></text>
<rect class="shared" x="341" y="447" width="196.6" height="14" rx="2"/>
<text class="muted" x="542.6" y="457" font-size="11">402</text>
</g>
<g><title>Schema (com.mojang.datafixers.schemas): 389 importing files</title>
<text x="333" y="477" text-anchor="end" font-size="12">Schema<tspan class="muted" font-size="11"> com.mojang.datafixers.schemas</tspan></text>
<rect class="lib" x="341" y="467" width="190.2" height="14" rx="2"/>
<text class="muted" x="536.2" y="477" font-size="11">389</text>
</g>
<g><title>SoundEvents (sounds): 316 importing files</title>
<text x="333" y="497" text-anchor="end" font-size="12">SoundEvents<tspan class="muted" font-size="11"> sounds</tspan></text>
<rect class="shared" x="341" y="487" width="154.5" height="14" rx="2"/>
<text class="muted" x="500.5" y="497" font-size="11">316</text>
</g>
<g><title>BlockBehaviour (world.level.block.state): 311 importing files</title>
<text x="333" y="517" text-anchor="end" font-size="12">BlockBehaviour<tspan class="muted" font-size="11"> world.level.block.state</tspan></text>
<rect class="shared" x="341" y="507" width="152.1" height="14" rx="2"/>
<text class="muted" x="498.1" y="517" font-size="11">311</text>
</g>
<g><title>Blocks (world.level.block): 310 importing files</title>
<text x="333" y="537" text-anchor="end" font-size="12">Blocks<tspan class="muted" font-size="11"> world.level.block</tspan></text>
<rect class="shared" x="341" y="527" width="151.6" height="14" rx="2"/>
<text class="muted" x="497.6" y="537" font-size="11">310</text>
</g>
<g><title>Packet (network.protocol): 287 importing files</title>
<text x="333" y="557" text-anchor="end" font-size="12">Packet<tspan class="muted" font-size="11"> network.protocol</tspan></text>
<rect class="shared" x="341" y="547" width="140.3" height="14" rx="2"/>
<text class="muted" x="486.3" y="557" font-size="11">287</text>
</g>
<g><title>Minecraft (client): 280 importing files</title>
<text x="333" y="577" text-anchor="end" font-size="12">Minecraft<tspan class="muted" font-size="11"> client</tspan></text>
<rect class="client" x="341" y="567" width="136.9" height="14" rx="2"/>
<text class="muted" x="482.9" y="577" font-size="11">280</text>
</g>
<g><title>DSL (com.mojang.datafixers): 278 importing files</title>
<text x="333" y="597" text-anchor="end" font-size="12">DSL<tspan class="muted" font-size="11"> com.mojang.datafixers</tspan></text>
<rect class="lib" x="341" y="587" width="135.9" height="14" rx="2"/>
<text class="muted" x="481.9" y="597" font-size="11">278</text>
</g>
</svg>
