<svg class="mapfig" xmlns="http://www.w3.org/2000/svg" viewBox="0 0 1020 1016" width="1020" height="1016" role="img" aria-label="The class hierarchy under Block: each node shows how many types descend from it">
<title>The class hierarchy under Block: each node shows how many types descend from it</title>
<text class="node" x="4.0" y="554.0" font-size="12">Block (293)</text>
<path class="edge" d="M86.6 550.0 H204.0 V96.0 H211.0"/>
<text class="node" x="214.0" y="100.0" font-size="12">BaseEntityBlock (64)</text>
<path class="edge" d="M359.2 96.0 H443.8 V20.0 H450.8"/>
<text class="node" x="453.8" y="24.0" font-size="12">AbstractSkullBlock (7)</text>
<path class="edge" d="M612.9 20.0 H760.1 V12.0 H767.1"/>
<text class="node" x="770.1" y="16.0" font-size="12">WallSkullBlock (3)</text>
<path class="edge" d="M612.9 20.0 H760.1 V28.0 H767.1"/>
<text class="node" x="770.1" y="32.0" font-size="12">SkullBlock (2)</text>
<path class="edge" d="M359.2 96.0 H443.8 V52.0 H450.8"/>
<text class="node" x="453.8" y="56.0" font-size="12">AbstractChestBlock (5)</text>
<path class="edge" d="M612.9 52.0 H760.1 V44.0 H767.1"/>
<text class="node" x="770.1" y="48.0" font-size="12">ChestBlock (3)</text>
<path class="edge" d="M612.9 52.0 H760.1 V60.0 H767.1"/>
<text class="node" x="770.1" y="64.0" font-size="12">EnderChestBlock</text>
<path class="edge" d="M359.2 96.0 H443.8 V76.0 H450.8"/>
<text class="node" x="453.8" y="80.0" font-size="12">SignBlock (4)</text>
<path class="edge" d="M550.2 76.0 H760.1 V76.0 H767.1"/>
<text class="fold" x="770.1" y="80.0" font-size="12">4 with no subclasses</text>
<path class="edge" d="M359.2 96.0 H443.8 V92.0 H450.8"/>
<text class="node" x="453.8" y="96.0" font-size="12">AbstractFurnaceBlock (3)</text>
<path class="edge" d="M626.8 92.0 H760.1 V92.0 H767.1"/>
<text class="fold" x="770.1" y="96.0" font-size="12">3 with no subclasses</text>
<path class="edge" d="M359.2 96.0 H443.8 V108.0 H450.8"/>
<text class="node" x="453.8" y="112.0" font-size="12">AbstractBannerBlock (2)</text>
<path class="edge" d="M619.8 108.0 H760.1 V108.0 H767.1"/>
<text class="fold" x="770.1" y="112.0" font-size="12">2 with no subclasses</text>
<path class="edge" d="M359.2 96.0 H443.8 V124.0 H450.8"/>
<text class="node" x="453.8" y="128.0" font-size="12">CopperGolemStatueBlock (1)</text>
<path class="edge" d="M640.7 124.0 H760.1 V124.0 H767.1"/>
<text class="node" x="770.1" y="128.0" font-size="12">WeatheringCopperGolemStatueBlock</text>
<path class="edge" d="M359.2 96.0 H443.8 V140.0 H450.8"/>
<text class="node" x="453.8" y="144.0" font-size="12">DispenserBlock (1)</text>
<path class="edge" d="M585.0 140.0 H760.1 V140.0 H767.1"/>
<text class="node" x="770.1" y="144.0" font-size="12">DropperBlock</text>
<path class="edge" d="M359.2 96.0 H443.8 V156.0 H450.8"/>
<text class="node" x="453.8" y="160.0" font-size="12">SculkSensorBlock (1)</text>
<path class="edge" d="M599.0 156.0 H760.1 V156.0 H767.1"/>
<text class="node" x="770.1" y="160.0" font-size="12">CalibratedSculkSensorBlock</text>
<path class="edge" d="M359.2 96.0 H443.8 V172.0 H450.8"/>
<text class="fold" x="453.8" y="176.0" font-size="12">32 with no subclasses</text>
<path class="edge" d="M86.6 550.0 H204.0 V228.0 H211.0"/>
<text class="node" x="214.0" y="232.0" font-size="12">VegetationBlock (36)</text>
<path class="edge" d="M359.2 228.0 H443.8 V188.0 H450.8"/>
<text class="node" x="453.8" y="192.0" font-size="12">CropBlock (4)</text>
<path class="edge" d="M550.2 188.0 H760.1 V188.0 H767.1"/>
<text class="fold" x="770.1" y="192.0" font-size="12">4 with no subclasses</text>
<path class="edge" d="M359.2 228.0 H443.8 V204.0 H450.8"/>
<text class="node" x="453.8" y="208.0" font-size="12">DoublePlantBlock (4)</text>
<path class="edge" d="M599.0 204.0 H760.1 V204.0 H767.1"/>
<text class="fold" x="770.1" y="208.0" font-size="12">4 with no subclasses</text>
<path class="edge" d="M359.2 228.0 H443.8 V220.0 H450.8"/>
<text class="node" x="453.8" y="224.0" font-size="12">DryVegetationBlock (2)</text>
<path class="edge" d="M612.9 220.0 H760.1 V220.0 H767.1"/>
<text class="fold" x="770.1" y="224.0" font-size="12">2 with no subclasses</text>
<path class="edge" d="M359.2 228.0 H443.8 V236.0 H450.8"/>
<text class="node" x="453.8" y="240.0" font-size="12">FlowerBlock (2)</text>
<path class="edge" d="M564.2 236.0 H760.1 V236.0 H767.1"/>
<text class="fold" x="770.1" y="240.0" font-size="12">2 with no subclasses</text>
<path class="edge" d="M359.2 228.0 H443.8 V252.0 H450.8"/>
<text class="node" x="453.8" y="256.0" font-size="12">SaplingBlock (1)</text>
<path class="edge" d="M571.1 252.0 H760.1 V252.0 H767.1"/>
<text class="node" x="770.1" y="256.0" font-size="12">MangrovePropaguleBlock</text>
<path class="edge" d="M359.2 228.0 H443.8 V268.0 H450.8"/>
<text class="fold" x="453.8" y="272.0" font-size="12">18 with no subclasses</text>
<path class="edge" d="M86.6 550.0 H204.0 V308.0 H211.0"/>
<text class="node" x="214.0" y="312.0" font-size="12">HorizontalDirectionalBlock (18)</text>
<path class="edge" d="M435.8 308.0 H443.8 V284.0 H450.8"/>
<text class="node" x="453.8" y="288.0" font-size="12">FaceAttachedHorizontalDirectionalBlock (3)</text>
<path class="edge" d="M752.1 284.0 H760.1 V284.0 H767.1"/>
<text class="fold" x="770.1" y="288.0" font-size="12">3 with no subclasses</text>
<path class="edge" d="M435.8 308.0 H443.8 V300.0 H450.8"/>
<text class="node" x="453.8" y="304.0" font-size="12">DiodeBlock (2)</text>
<path class="edge" d="M557.2 300.0 H760.1 V300.0 H767.1"/>
<text class="fold" x="770.1" y="304.0" font-size="12">2 with no subclasses</text>
<path class="edge" d="M435.8 308.0 H443.8 V316.0 H450.8"/>
<text class="node" x="453.8" y="320.0" font-size="12">TrapDoorBlock (1)</text>
<path class="edge" d="M578.1 316.0 H760.1 V316.0 H767.1"/>
<text class="node" x="770.1" y="320.0" font-size="12">WeatheringCopperTrapDoorBlock</text>
<path class="edge" d="M435.8 308.0 H443.8 V332.0 H450.8"/>
<text class="fold" x="453.8" y="336.0" font-size="12">9 with no subclasses</text>
<path class="edge" d="M86.6 550.0 H204.0 V356.0 H211.0"/>
<text class="node" x="214.0" y="360.0" font-size="12">GrowingPlantBlock (10)</text>
<path class="edge" d="M373.1 356.0 H443.8 V348.0 H450.8"/>
<text class="node" x="453.8" y="352.0" font-size="12">GrowingPlantBodyBlock (4)</text>
<path class="edge" d="M633.8 348.0 H760.1 V348.0 H767.1"/>
<text class="fold" x="770.1" y="352.0" font-size="12">4 with no subclasses</text>
<path class="edge" d="M373.1 356.0 H443.8 V364.0 H450.8"/>
<text class="node" x="453.8" y="368.0" font-size="12">GrowingPlantHeadBlock (4)</text>
<path class="edge" d="M633.8 364.0 H760.1 V364.0 H767.1"/>
<text class="fold" x="770.1" y="368.0" font-size="12">4 with no subclasses</text>
<path class="edge" d="M86.6 550.0 H204.0 V408.0 H211.0"/>
<text class="node" x="214.0" y="412.0" font-size="12">HalfTransparentBlock (9)</text>
<path class="edge" d="M387.0 408.0 H443.8 V388.0 H450.8"/>
<text class="node" x="453.8" y="392.0" font-size="12">TransparentBlock (4)</text>
<path class="edge" d="M599.0 388.0 H760.1 V380.0 H767.1"/>
<text class="node" x="770.1" y="384.0" font-size="12">WaterloggedTransparentBlock (1)</text>
<path class="edge" d="M599.0 388.0 H760.1 V396.0 H767.1"/>
<text class="fold" x="770.1" y="400.0" font-size="12">2 with no subclasses</text>
<path class="edge" d="M387.0 408.0 H443.8 V412.0 H450.8"/>
<text class="node" x="453.8" y="416.0" font-size="12">IceBlock (1)</text>
<path class="edge" d="M543.3 412.0 H760.1 V412.0 H767.1"/>
<text class="node" x="770.1" y="416.0" font-size="12">FrostedIceBlock</text>
<path class="edge" d="M387.0 408.0 H443.8 V428.0 H450.8"/>
<text class="fold" x="453.8" y="432.0" font-size="12">2 with no subclasses</text>
<path class="edge" d="M86.6 550.0 H204.0 V464.0 H211.0"/>
<text class="node" x="214.0" y="468.0" font-size="12">DirectionalBlock (7)</text>
<path class="edge" d="M359.2 464.0 H443.8 V452.0 H450.8"/>
<text class="node" x="453.8" y="456.0" font-size="12">RodBlock (3)</text>
<path class="edge" d="M543.3 452.0 H760.1 V444.0 H767.1"/>
<text class="node" x="770.1" y="448.0" font-size="12">LightningRodBlock (1)</text>
<path class="edge" d="M543.3 452.0 H760.1 V460.0 H767.1"/>
<text class="node" x="770.1" y="464.0" font-size="12">EndRodBlock</text>
<path class="edge" d="M359.2 464.0 H443.8 V476.0 H450.8"/>
<text class="fold" x="453.8" y="480.0" font-size="12">3 with no subclasses</text>
<path class="edge" d="M86.6 550.0 H204.0 V512.0 H211.0"/>
<text class="node" x="214.0" y="516.0" font-size="12">BaseCoralPlantTypeBlock (6)</text>
<path class="edge" d="M407.9 512.0 H443.8 V500.0 H450.8"/>
<text class="node" x="453.8" y="504.0" font-size="12">BaseCoralFanBlock (3)</text>
<path class="edge" d="M605.9 500.0 H760.1 V492.0 H767.1"/>
<text class="node" x="770.1" y="496.0" font-size="12">BaseCoralWallFanBlock (1)</text>
<path class="edge" d="M605.9 500.0 H760.1 V508.0 H767.1"/>
<text class="node" x="770.1" y="512.0" font-size="12">CoralFanBlock</text>
<path class="edge" d="M407.9 512.0 H443.8 V524.0 H450.8"/>
<text class="fold" x="453.8" y="528.0" font-size="12">2 with no subclasses</text>
<path class="edge" d="M86.6 550.0 H204.0 V548.0 H211.0"/>
<text class="node" x="214.0" y="552.0" font-size="12">FallingBlock (5)</text>
<path class="edge" d="M331.4 548.0 H443.8 V540.0 H450.8"/>
<text class="node" x="453.8" y="544.0" font-size="12">ColoredFallingBlock (1)</text>
<path class="edge" d="M619.8 540.0 H760.1 V540.0 H767.1"/>
<text class="node" x="770.1" y="544.0" font-size="12">SandBlock</text>
<path class="edge" d="M331.4 548.0 H443.8 V556.0 H450.8"/>
<text class="fold" x="453.8" y="560.0" font-size="12">3 with no subclasses</text>
<path class="edge" d="M86.6 550.0 H204.0 V580.0 H211.0"/>
<text class="node" x="214.0" y="584.0" font-size="12">BaseTorchBlock (4)</text>
<path class="edge" d="M345.3 580.0 H443.8 V572.0 H450.8"/>
<text class="node" x="453.8" y="576.0" font-size="12">RedstoneTorchBlock (1)</text>
<path class="edge" d="M612.9 572.0 H760.1 V572.0 H767.1"/>
<text class="node" x="770.1" y="576.0" font-size="12">RedstoneWallTorchBlock</text>
<path class="edge" d="M345.3 580.0 H443.8 V588.0 H450.8"/>
<text class="node" x="453.8" y="592.0" font-size="12">TorchBlock (1)</text>
<path class="edge" d="M557.2 588.0 H760.1 V588.0 H767.1"/>
<text class="node" x="770.1" y="592.0" font-size="12">WallTorchBlock</text>
<path class="edge" d="M86.6 550.0 H204.0 V612.0 H211.0"/>
<text class="node" x="214.0" y="616.0" font-size="12">CrossCollisionBlock (4)</text>
<path class="edge" d="M380.1 612.0 H443.8 V604.0 H450.8"/>
<text class="node" x="453.8" y="608.0" font-size="12">IronBarsBlock (2)</text>
<path class="edge" d="M578.1 604.0 H760.1 V604.0 H767.1"/>
<text class="fold" x="770.1" y="608.0" font-size="12">2 with no subclasses</text>
<path class="edge" d="M380.1 612.0 H443.8 V620.0 H450.8"/>
<text class="node" x="453.8" y="624.0" font-size="12">FenceBlock</text>
<path class="edge" d="M86.6 550.0 H204.0 V636.0 H211.0"/>
<text class="node" x="214.0" y="640.0" font-size="12">AbstractCauldronBlock (3)</text>
<path class="edge" d="M394.0 636.0 H443.8 V636.0 H450.8"/>
<text class="fold" x="453.8" y="640.0" font-size="12">3 with no subclasses</text>
<path class="edge" d="M86.6 550.0 H204.0 V652.0 H211.0"/>
<text class="node" x="214.0" y="656.0" font-size="12">BaseRailBlock (3)</text>
<path class="edge" d="M338.3 652.0 H443.8 V652.0 H450.8"/>
<text class="fold" x="453.8" y="656.0" font-size="12">3 with no subclasses</text>
<path class="edge" d="M86.6 550.0 H204.0 V676.0 H211.0"/>
<text class="node" x="214.0" y="680.0" font-size="12">LeavesBlock (3)</text>
<path class="edge" d="M324.4 676.0 H443.8 V668.0 H450.8"/>
<text class="node" x="453.8" y="672.0" font-size="12">TintedParticleLeavesBlock (1)</text>
<path class="edge" d="M661.6 668.0 H760.1 V668.0 H767.1"/>
<text class="node" x="770.1" y="672.0" font-size="12">MangroveLeavesBlock</text>
<path class="edge" d="M324.4 676.0 H443.8 V684.0 H450.8"/>
<text class="node" x="453.8" y="688.0" font-size="12">UntintedParticleLeavesBlock</text>
<path class="edge" d="M86.6 550.0 H204.0 V700.0 H211.0"/>
<text class="node" x="214.0" y="704.0" font-size="12">MultifaceBlock (3)</text>
<path class="edge" d="M345.3 700.0 H443.8 V700.0 H450.8"/>
<text class="node" x="453.8" y="704.0" font-size="12">MultifaceSpreadeableBlock (2)</text>
<path class="edge" d="M661.6 700.0 H760.1 V700.0 H767.1"/>
<text class="fold" x="770.1" y="704.0" font-size="12">2 with no subclasses</text>
<path class="edge" d="M86.6 550.0 H204.0 V724.0 H211.0"/>
<text class="node" x="214.0" y="728.0" font-size="12">RotatedPillarBlock (3)</text>
<path class="edge" d="M373.1 724.0 H443.8 V716.0 H450.8"/>
<text class="node" x="453.8" y="720.0" font-size="12">ChainBlock (1)</text>
<path class="edge" d="M557.2 716.0 H760.1 V716.0 H767.1"/>
<text class="node" x="770.1" y="720.0" font-size="12">WeatheringCopperChainBlock</text>
<path class="edge" d="M373.1 724.0 H443.8 V732.0 H450.8"/>
<text class="node" x="453.8" y="736.0" font-size="12">HayBlock</text>
<path class="edge" d="M86.6 550.0 H204.0 V748.0 H211.0"/>
<text class="node" x="214.0" y="752.0" font-size="12">SnowyBlock (3)</text>
<path class="edge" d="M317.4 748.0 H443.8 V748.0 H450.8"/>
<text class="node" x="453.8" y="752.0" font-size="12">SpreadingSnowyBlock (2)</text>
<path class="edge" d="M619.8 748.0 H760.1 V748.0 H767.1"/>
<text class="fold" x="770.1" y="752.0" font-size="12">2 with no subclasses</text>
<path class="edge" d="M86.6 550.0 H204.0 V764.0 H211.0"/>
<text class="node" x="214.0" y="768.0" font-size="12">AbstractCandleBlock (2)</text>
<path class="edge" d="M380.1 764.0 H443.8 V764.0 H450.8"/>
<text class="fold" x="453.8" y="768.0" font-size="12">2 with no subclasses</text>
<path class="edge" d="M86.6 550.0 H204.0 V780.0 H211.0"/>
<text class="node" x="214.0" y="784.0" font-size="12">AmethystBlock (2)</text>
<path class="edge" d="M338.3 780.0 H443.8 V780.0 H450.8"/>
<text class="fold" x="453.8" y="784.0" font-size="12">2 with no subclasses</text>
<path class="edge" d="M86.6 550.0 H204.0 V796.0 H211.0"/>
<text class="node" x="214.0" y="800.0" font-size="12">BaseFireBlock (2)</text>
<path class="edge" d="M338.3 796.0 H443.8 V796.0 H450.8"/>
<text class="fold" x="453.8" y="800.0" font-size="12">2 with no subclasses</text>
<path class="edge" d="M86.6 550.0 H204.0 V812.0 H211.0"/>
<text class="node" x="214.0" y="816.0" font-size="12">BasePressurePlateBlock (2)</text>
<path class="edge" d="M401.0 812.0 H443.8 V812.0 H450.8"/>
<text class="fold" x="453.8" y="816.0" font-size="12">2 with no subclasses</text>
<path class="edge" d="M86.6 550.0 H204.0 V828.0 H211.0"/>
<text class="node" x="214.0" y="832.0" font-size="12">SpeleothemBlock (2)</text>
<path class="edge" d="M352.2 828.0 H443.8 V828.0 H450.8"/>
<text class="fold" x="453.8" y="832.0" font-size="12">2 with no subclasses</text>
<path class="edge" d="M86.6 550.0 H204.0 V844.0 H211.0"/>
<text class="node" x="214.0" y="848.0" font-size="12">CarpetBlock (1)</text>
<path class="edge" d="M324.4 844.0 H443.8 V844.0 H450.8"/>
<text class="node" x="453.8" y="848.0" font-size="12">WoolCarpetBlock</text>
<path class="edge" d="M86.6 550.0 H204.0 V860.0 H211.0"/>
<text class="node" x="214.0" y="864.0" font-size="12">CopperBulbBlock (1)</text>
<path class="edge" d="M352.2 860.0 H443.8 V860.0 H450.8"/>
<text class="node" x="453.8" y="864.0" font-size="12">WeatheringCopperBulbBlock</text>
<path class="edge" d="M86.6 550.0 H204.0 V876.0 H211.0"/>
<text class="node" x="214.0" y="880.0" font-size="12">CraftingTableBlock (1)</text>
<path class="edge" d="M373.1 876.0 H443.8 V876.0 H450.8"/>
<text class="node" x="453.8" y="880.0" font-size="12">SmithingTableBlock</text>
<path class="edge" d="M86.6 550.0 H204.0 V892.0 H211.0"/>
<text class="node" x="214.0" y="896.0" font-size="12">DoorBlock (1)</text>
<path class="edge" d="M310.5 892.0 H443.8 V892.0 H450.8"/>
<text class="node" x="453.8" y="896.0" font-size="12">WeatheringCopperDoorBlock</text>
<path class="edge" d="M86.6 550.0 H204.0 V908.0 H211.0"/>
<text class="node" x="214.0" y="912.0" font-size="12">DropExperienceBlock (1)</text>
<path class="edge" d="M380.1 908.0 H443.8 V908.0 H450.8"/>
<text class="node" x="453.8" y="912.0" font-size="12">SculkBlock</text>
<path class="edge" d="M86.6 550.0 H204.0 V924.0 H211.0"/>
<text class="node" x="214.0" y="928.0" font-size="12">InfestedBlock (1)</text>
<path class="edge" d="M338.3 924.0 H443.8 V924.0 H450.8"/>
<text class="node" x="453.8" y="928.0" font-size="12">InfestedRotatedPillarBlock</text>
<path class="edge" d="M86.6 550.0 H204.0 V940.0 H211.0"/>
<text class="node" x="214.0" y="944.0" font-size="12">LanternBlock (1)</text>
<path class="edge" d="M331.4 940.0 H443.8 V940.0 H450.8"/>
<text class="node" x="453.8" y="944.0" font-size="12">WeatheringLanternBlock</text>
<path class="edge" d="M86.6 550.0 H204.0 V956.0 H211.0"/>
<text class="node" x="214.0" y="960.0" font-size="12">PipeBlock (1)</text>
<path class="edge" d="M310.5 956.0 H443.8 V956.0 H450.8"/>
<text class="node" x="453.8" y="960.0" font-size="12">ChorusPlantBlock</text>
<path class="edge" d="M86.6 550.0 H204.0 V972.0 H211.0"/>
<text class="node" x="214.0" y="976.0" font-size="12">SlabBlock (1)</text>
<path class="edge" d="M310.5 972.0 H443.8 V972.0 H450.8"/>
<text class="node" x="453.8" y="976.0" font-size="12">WeatheringCopperSlabBlock</text>
<path class="edge" d="M86.6 550.0 H204.0 V988.0 H211.0"/>
<text class="node" x="214.0" y="992.0" font-size="12">StairBlock (1)</text>
<path class="edge" d="M317.4 988.0 H443.8 V988.0 H450.8"/>
<text class="node" x="453.8" y="992.0" font-size="12">WeatheringCopperStairBlock</text>
<path class="edge" d="M86.6 550.0 H204.0 V1004.0 H211.0"/>
<text class="fold" x="214.0" y="1008.0" font-size="12">61 with no subclasses</text>
</svg>
